<?xml version="1.0" encoding="UTF-8" standalone="no"?>
<!-- Created with Inkscape (http://www.inkscape.org/) -->
<svg
   xmlns:dc="http://purl.org/dc/elements/1.1/"
   xmlns:cc="http://creativecommons.org/ns#"
   xmlns:rdf="http://www.w3.org/1999/02/22-rdf-syntax-ns#"
   xmlns:svg="http://www.w3.org/2000/svg"
   xmlns="http://www.w3.org/2000/svg"
   xmlns:xlink="http://www.w3.org/1999/xlink"
   xmlns:sodipodi="http://sodipodi.sourceforge.net/DTD/sodipodi-0.dtd"
   xmlns:inkscape="http://www.inkscape.org/namespaces/inkscape"
   width="440"
   height="140"
   id="svg2"
   sodipodi:version="0.32"
   inkscape:version="0.46"
   version="1.0"
   sodipodi:docname="scons_logo_concept_clean.svg"
   inkscape:output_extension="org.inkscape.output.svg.inkscape">
  <defs
     id="defs4">
    <linearGradient
       id="linearGradient3497">
      <stop
         style="stop-color:#ffffff;stop-opacity:1;"
         offset="0"
         id="stop3499" />
      <stop
         style="stop-color:#ffffff;stop-opacity:0;"
         offset="1"
         id="stop3501" />
    </linearGradient>
    <linearGradient
       id="linearGradient3263">
      <stop
         style="stop-color:#ffffff;stop-opacity:1;"
         offset="0"
         id="stop3265" />
      <stop
         style="stop-color:#d7d7ff;stop-opacity:0;"
         offset="1"
         id="stop3267" />
    </linearGradient>
    <linearGradient
       id="linearGradient3238">
      <stop
         style="stop-color:#ffffff;stop-opacity:1;"
         offset="0"
         id="stop3240" />
      <stop
         style="stop-color:#d7d7ff;stop-opacity:0;"
         offset="1"
         id="stop3242" />
    </linearGradient>
    <inkscape:perspective
       sodipodi:type="inkscape:persp3d"
       inkscape:vp_x="31.071427 : 565.82395 : 1"
       inkscape:vp_y="6.1230318e-14 : 1000 : 0"
       inkscape:vp_z="775.16591 : 565.82395 : 1"
       inkscape:persp3d-origin="403.11867 : 390.43025 : 1"
       id="perspective10" />
    <linearGradient
       inkscape:collect="always"
       xlink:href="#linearGradient3497"
       id="linearGradient3503"
       x1="363.79669"
       y1="445.19986"
       x2="373.51544"
       y2="468.05701"
       gradientUnits="userSpaceOnUse"
       gradientTransform="translate(202.53559,-12.626907)" />
  </defs>
  <sodipodi:namedview
     id="base"
     pagecolor="#ffffff"
     bordercolor="#666666"
     borderopacity="1.0"
     inkscape:pageopacity="0.0"
     inkscape:pageshadow="2"
     inkscape:zoom="1.979899"
     inkscape:cx="182.14635"
     inkscape:cy="64.588531"
     inkscape:document-units="px"
     inkscape:current-layer="layer1"
     showgrid="false"
     showguides="true"
     inkscape:guide-bbox="true"
     inkscape:window-width="1920"
     inkscape:window-height="1131"
     inkscape:window-x="0"
     inkscape:window-y="42" />
  <metadata
     id="metadata7">
    <rdf:RDF>
      <cc:Work
         rdf:about="">
        <dc:format>image/svg+xml</dc:format>
        <dc:type
           rdf:resource="http://purl.org/dc/dcmitype/StillImage" />
      </cc:Work>
    </rdf:RDF>
  </metadata>
  <g
     inkscape:label="Capa 1"
     inkscape:groupmode="layer"
     id="layer1"
     transform="translate(-182.52778,-382.36533)">
    <g
       id="g5774">
      <g
         id="g5749">
        <g
           id="g5732">
          <path
             id="path3619"
             d="M 311.24778,482.40576 C 292.70356,490.48146 265.9341,497.80941 265.9341,497.80941 C 261.59715,497.95896 221.96637,479.8634 221.96637,479.8634 C 221.96637,479.8634 220.76997,435.29747 222.11593,425.87582 C 222.11593,425.87582 263.39175,419.14606 265.635,419.74426 C 265.635,419.74426 310.79913,423.63256 311.39733,425.42717 L 311.24778,482.40576 z"
             style="fill:#1e1e1e;fill-opacity:1;fill-rule:evenodd;stroke:#1e1e1e;stroke-width:7.39201784;stroke-linecap:round;stroke-linejoin:round;stroke-miterlimit:4;stroke-dasharray:none;stroke-opacity:1" />
          <g
             id="g5717">
            <path
               style="fill:#d7d7ff;fill-opacity:1;fill-rule:evenodd;stroke:none;stroke-width:5.57399988;stroke-linecap:round;stroke-linejoin:round;stroke-miterlimit:4;stroke-dasharray:none;stroke-opacity:1"
               d="M 311.12928,482.14654 C 292.58507,490.22224 265.8156,497.55019 265.8156,497.55019 C 261.47865,497.69974 221.84787,479.60418 221.84787,479.60418 C 221.84787,479.60418 220.65148,435.03825 221.99743,425.6166 C 221.99743,425.6166 263.27326,418.88684 265.5165,419.48504 C 265.5165,419.48504 310.68063,423.37334 311.27883,425.16795 L 311.12928,482.14654 z"
               id="path2399" />
            <path
               style="opacity:0.2;fill:#000000;fill-opacity:1;fill-rule:evenodd;stroke:none;stroke-width:1px;stroke-linecap:butt;stroke-linejoin:miter;stroke-opacity:1"
               d="M 264.0064,461.64516 C 264.0064,461.64516 278.87712,459.90802 291.57154,457.57127 C 281.93591,456.11451 275.69896,455.60753 264.25894,454.94753 C 264.25894,454.94753 253.99637,455.8438 240.79634,457.71381 C 240.79634,457.71381 252.89637,460.87516 264.0064,461.64516 z"
               id="path3333"
               sodipodi:nodetypes="ccccc" />
            <path
               style="fill:#818199;fill-opacity:1;fill-rule:evenodd;stroke:none;stroke-width:5.57399988;stroke-linecap:round;stroke-linejoin:round;stroke-miterlimit:4;stroke-dasharray:none;stroke-opacity:1"
               d="M 265.2164,419.45571 C 264.7765,419.4727 264.11205,419.5229 263.38765,419.59046 C 263.86772,419.54921 264.32793,419.52622 264.65815,419.51346 C 264.77212,419.50907 264.85236,419.51419 264.9469,419.51346 C 264.81236,421.99166 264.1488,435.33131 264.23465,454.8758 C 275.43868,455.52829 281.42079,456.16807 290.95371,457.60931 C 290.89579,457.61997 290.83844,457.63723 290.78046,457.64781 L 291.01146,457.66706 C 291.12241,456.39206 292.32115,441.96057 291.33871,421.93897 C 279.14957,420.6168 266.08265,419.49421 266.08265,419.49421 C 265.94245,419.45683 265.64194,419.43929 265.2164,419.45571 z"
               id="path3353" />
            <path
               style="fill:none;fill-rule:evenodd;stroke:#ffffff;stroke-width:1.22898078;stroke-linecap:square;stroke-linejoin:round;stroke-miterlimit:4;stroke-dasharray:none;stroke-opacity:1"
               d="M 222.35196,453.03442 C 222.35196,453.03442 239.31256,459.85681 263.49509,461.72746"
               id="path3374"
               sodipodi:nodetypes="cc" />
            <path
               style="fill:none;fill-opacity:1;fill-rule:evenodd;stroke:#9696cc;stroke-width:1.23200297;stroke-linecap:round;stroke-linejoin:round;stroke-miterlimit:4;stroke-dasharray:none;stroke-opacity:1"
               d="M 222.15129,453.2588 C 222.15129,453.2588 240.96134,460.29883 263.6214,461.94882"
               id="path3378"
               sodipodi:nodetypes="cc" />
            <path
               style="fill:#b3b3ff;fill-opacity:1;fill-rule:evenodd;stroke:#9696cc;stroke-width:0.61600149px;stroke-linecap:butt;stroke-linejoin:miter;stroke-opacity:1"
               d="M 240.90634,457.60381 C 240.90634,457.60381 240.24634,437.91376 241.01634,422.73372"
               id="path3380" />
            <path
               sodipodi:nodetypes="cc"
               id="path3388"
               d="M 241.01168,458.76347 C 241.01168,458.76347 240.83792,472.07009 242.01101,487.79421"
               style="fill:none;fill-opacity:1;fill-rule:evenodd;stroke:#b3b3ff;stroke-width:1.22266901;stroke-linecap:round;stroke-linejoin:round;stroke-miterlimit:4;stroke-dasharray:none;stroke-opacity:1" />
            <path
               style="fill:none;fill-opacity:1;fill-rule:evenodd;stroke:#9696cc;stroke-width:1.22266901;stroke-linecap:round;stroke-linejoin:round;stroke-miterlimit:4;stroke-dasharray:none;stroke-opacity:1"
               d="M 241.01167,458.76348 C 241.01167,458.76348 240.83792,472.0701 242.01101,487.79421"
               id="path3390"
               sodipodi:nodetypes="cc" />
            <path
               sodipodi:nodetypes="cc"
               id="path3392"
               d="M 240.30121,459.25848 C 240.30121,459.25848 240.12745,472.1251 241.30055,487.84921"
               style="fill:none;fill-opacity:1;fill-rule:evenodd;stroke:#ffffff;stroke-width:0.36036086;stroke-linecap:round;stroke-linejoin:round;stroke-miterlimit:4;stroke-dasharray:none;stroke-opacity:1" />
            <path
               sodipodi:nodetypes="cc"
               id="path3382"
               d="M 264.1833,461.98571 C 264.1833,461.98571 289.19085,459.20007 310.5184,454.16635"
               style="fill:none;fill-opacity:1;fill-rule:evenodd;stroke:#9696cc;stroke-width:1.22266901;stroke-linecap:square;stroke-linejoin:round;stroke-miterlimit:4;stroke-dasharray:none;stroke-opacity:1" />
            <path
               style="fill:none;fill-opacity:1;fill-rule:evenodd;stroke:#9696cc;stroke-width:0.60676152;stroke-linecap:square;stroke-linejoin:round;stroke-miterlimit:4;stroke-dasharray:none;stroke-opacity:1"
               d="M 291.26553,457.89975 C 291.26553,457.89975 292.60464,442.23931 291.49486,422.34405"
               id="path3384"
               sodipodi:nodetypes="cc" />
            <path
               style="fill:none;fill-rule:evenodd;stroke:#ffffff;stroke-width:0.61600149;stroke-linecap:square;stroke-linejoin:round;stroke-miterlimit:4;stroke-dasharray:none;stroke-opacity:1"
               d="M 264.22214,461.38028 C 264.22214,461.38028 288.4391,459.1165 310.86524,453.76841"
               id="path3362"
               sodipodi:nodetypes="cc" />
            <path
               style="opacity:0.4;fill:#000000;fill-opacity:1;fill-rule:evenodd;stroke:none;stroke-width:5.57412624;stroke-linecap:round;stroke-linejoin:round;stroke-miterlimit:4;stroke-dasharray:none;stroke-opacity:1"
               d="M 241.27333,422.48403 C 231.19088,424.00637 221.87588,425.51646 221.87588,425.51646 C 220.50868,434.98866 221.71944,479.81041 221.71944,479.81041 C 221.71944,479.81042 259.23007,496.75235 265.79391,497.79251 C 264.59856,487.11359 264.2413,473.85069 264.26871,461.0171 C 253.45968,460.26781 242.05215,457.95906 241.13646,457.77221 C 241.09838,457.76444 240.80404,457.71426 240.80404,457.71426 C 240.91868,457.69823 241.02231,457.69151 241.13646,457.67563 C 241.06363,456.20325 240.54565,444.80863 241.13646,422.75444 C 241.18187,422.74759 241.22789,422.742 241.27333,422.73512 L 241.27333,422.48403 z"
               id="path3372" />
          </g>
        </g>
        <g
           id="g3609"
           transform="matrix(0.7334675,0,0,0.7334675,120.57972,127.9059)">
          <g
             style="opacity:0.1;fill:#000000;fill-opacity:1;stroke:#000000;stroke-opacity:1"
             transform="matrix(0.6797715,0,0,0.6797715,79.495736,150.61614)"
             id="g3213">
            <path
               style="fill:#000000;fill-opacity:1;fill-rule:evenodd;stroke:#000000;stroke-width:8.21800041;stroke-linecap:round;stroke-linejoin:round;stroke-miterlimit:4;stroke-dasharray:none;stroke-opacity:1"
               d="M 199.61492,433.81225 C 184.8016,448.50767 161.96523,465.47237 161.96523,465.47237 C 157.91735,467.20255 114.39854,463.91417 114.39854,463.91417 C 114.39854,463.91417 98.316196,420.61727 96.427046,410.88014 C 96.427046,410.88014 133.1714,389.20618 135.49178,388.97419 C 135.49178,388.97419 179.4726,376.30038 180.63993,377.84307 L 199.61492,433.81225 z"
               id="path3215" />
            <path
               style="opacity:0.24840764;fill:#000000;fill-opacity:1;fill-rule:evenodd;stroke:#000000;stroke-width:0.41316402px;stroke-linecap:butt;stroke-linejoin:miter;stroke-opacity:1"
               d="M 135.59992,391.10956 C 135.59992,391.10956 148.25461,436.47909 161.05818,462.75042 L 159.59533,462.03443 L 117.06305,460.03073 L 100.8598,411.37637 L 135.59992,391.10956 z"
               id="path3217"
               sodipodi:nodetypes="cccccc" />
          </g>
          <g
             id="g3605">
            <path
               style="fill:#d7d7ff;fill-opacity:1;fill-rule:evenodd;stroke:#1e1e1e;stroke-width:6;stroke-linecap:round;stroke-linejoin:round;stroke-miterlimit:4;stroke-dasharray:none;stroke-opacity:1"
               d="M 218.30116,411.05138 C 208.23149,421.04091 192.70797,432.57303 192.70797,432.57303 C 189.95634,433.74916 160.37349,431.51381 160.37349,431.51381 C 160.37349,431.51381 149.44118,402.08181 148.15698,395.46279 C 148.15698,395.46279 173.13475,380.72945 174.71208,380.57175 C 174.71208,380.57175 204.60899,371.95645 205.4025,373.00513 L 218.30116,411.05138 z"
               id="path3193" />
            <path
               style="opacity:0.4;fill:#000000;fill-opacity:1;fill-rule:evenodd;stroke:#000000;stroke-width:0.28085712px;stroke-linecap:butt;stroke-linejoin:miter;stroke-opacity:1"
               d="M 174.78559,383.63045 C 174.78559,383.63045 183.38789,412.86422 192.09139,430.72273 L 191.09698,430.23602 L 162.54189,428.69539 L 151.70595,397.05011 L 174.78559,383.63045 z"
               id="path3195"
               sodipodi:nodetypes="cccccc" />
          </g>
        </g>
      </g>
      <g
         transform="translate(37.857143,20.714286)"
         id="g3743">
        <text
           xml:space="preserve"
           style="font-size:40px;font-style:normal;font-variant:normal;font-weight:normal;font-stretch:normal;fill:#000000;fill-opacity:1;stroke:none;stroke-width:1px;stroke-linecap:butt;stroke-linejoin:miter;stroke-opacity:1;font-family:Sansation;-inkscape-font-specification:Sansation"
           x="301.30032"
           y="438.60385"
           id="text3735"><tspan
             sodipodi:role="line"
             id="tspan3737"
             x="301.30032"
             y="438.60385"
             style="font-size:56px;font-weight:normal;-inkscape-font-specification:Sansation">SCons</tspan></text>
        <text
           xml:space="preserve"
           style="font-size:40px;font-style:normal;font-variant:normal;font-weight:normal;font-stretch:normal;fill:#000000;fill-opacity:1;stroke:none;stroke-width:1px;stroke-linecap:butt;stroke-linejoin:miter;stroke-opacity:1;font-family:Liberation Sans;-inkscape-font-specification:Liberation Sans"
           x="298.67532"
           y="466.03241"
           id="text3739"><tspan
             sodipodi:role="line"
             id="tspan3741"
             x="298.67532"
             y="466.03241"
             style="font-size:22px">Build your software, better.</tspan></text>
      </g>
    </g>
  </g>
</svg>
