<svg xmlns="http://www.w3.org/2000/svg" xmlns:svg="http://www.w3.org/2000/svg" xmlns:xlink="http://www.w3.org/1999/xlink" id="svg2" width="440" height="140" version="1.0"><defs id="defs4"><linearGradient id="linearGradient3497"><stop style="stop-color:#fff;stop-opacity:1" id="stop3499" offset="0"/><stop style="stop-color:#fff;stop-opacity:0" id="stop3501" offset="1"/></linearGradient><linearGradient id="linearGradient3263"><stop style="stop-color:#fff;stop-opacity:1" id="stop3265" offset="0"/><stop style="stop-color:#d7d7ff;stop-opacity:0" id="stop3267" offset="1"/></linearGradient><linearGradient id="linearGradient3238"><stop style="stop-color:#fff;stop-opacity:1" id="stop3240" offset="0"/><stop style="stop-color:#d7d7ff;stop-opacity:0" id="stop3242" offset="1"/></linearGradient><linearGradient id="linearGradient3503" x1="363.797" x2="373.515" y1="445.2" y2="468.057" gradientTransform="translate(202.53559,-12.626907)" gradientUnits="userSpaceOnUse" xlink:href="#linearGradient3497"/></defs><metadata id="metadata7"/><g id="layer1" transform="translate(-182.52778,-382.36533)"><g id="g5774"><g id="g5749"><g id="g5732"><path id="path3619" d="M 311.24778,482.40576 C 292.70356,490.48146 265.9341,497.80941 265.9341,497.80941 C 261.59715,497.95896 221.96637,479.8634 221.96637,479.8634 C 221.96637,479.8634 220.76997,435.29747 222.11593,425.87582 C 222.11593,425.87582 263.39175,419.14606 265.635,419.74426 C 265.635,419.74426 310.79913,423.63256 311.39733,425.42717 L 311.24778,482.40576 z" style="fill:#1e1e1e;fill-opacity:1;fill-rule:evenodd;stroke:#1e1e1e;stroke-width:7.39201784;stroke-linecap:round;stroke-linejoin:round;stroke-miterlimit:4;stroke-dasharray:none;stroke-opacity:1"/><g id="g5717"><path style="fill:#d7d7ff;fill-opacity:1;fill-rule:evenodd;stroke:none;stroke-width:5.57399988;stroke-linecap:round;stroke-linejoin:round;stroke-miterlimit:4;stroke-dasharray:none;stroke-opacity:1" id="path2399" d="M 311.12928,482.14654 C 292.58507,490.22224 265.8156,497.55019 265.8156,497.55019 C 261.47865,497.69974 221.84787,479.60418 221.84787,479.60418 C 221.84787,479.60418 220.65148,435.03825 221.99743,425.6166 C 221.99743,425.6166 263.27326,418.88684 265.5165,419.48504 C 265.5165,419.48504 310.68063,423.37334 311.27883,425.16795 L 311.12928,482.14654 z"/><path style="opacity:.2;fill:#000;fill-opacity:1;fill-rule:evenodd;stroke:none;stroke-width:1px;stroke-linecap:butt;stroke-linejoin:miter;stroke-opacity:1" id="path3333" d="M 264.0064,461.64516 C 264.0064,461.64516 278.87712,459.90802 291.57154,457.57127 C 281.93591,456.11451 275.69896,455.60753 264.25894,454.94753 C 264.25894,454.94753 253.99637,455.8438 240.79634,457.71381 C 240.79634,457.71381 252.89637,460.87516 264.0064,461.64516 z"/><path style="fill:#818199;fill-opacity:1;fill-rule:evenodd;stroke:none;stroke-width:5.57399988;stroke-linecap:round;stroke-linejoin:round;stroke-miterlimit:4;stroke-dasharray:none;stroke-opacity:1" id="path3353" d="M 265.2164,419.45571 C 264.7765,419.4727 264.11205,419.5229 263.38765,419.59046 C 263.86772,419.54921 264.32793,419.52622 264.65815,419.51346 C 264.77212,419.50907 264.85236,419.51419 264.9469,419.51346 C 264.81236,421.99166 264.1488,435.33131 264.23465,454.8758 C 275.43868,455.52829 281.42079,456.16807 290.95371,457.60931 C 290.89579,457.61997 290.83844,457.63723 290.78046,457.64781 L 291.01146,457.66706 C 291.12241,456.39206 292.32115,441.96057 291.33871,421.93897 C 279.14957,420.6168 266.08265,419.49421 266.08265,419.49421 C 265.94245,419.45683 265.64194,419.43929 265.2164,419.45571 z"/><path style="fill:none;fill-rule:evenodd;stroke:#fff;stroke-width:1.22898078;stroke-linecap:square;stroke-linejoin:round;stroke-miterlimit:4;stroke-dasharray:none;stroke-opacity:1" id="path3374" d="M 222.35196,453.03442 C 222.35196,453.03442 239.31256,459.85681 263.49509,461.72746"/><path style="fill:none;fill-opacity:1;fill-rule:evenodd;stroke:#9696cc;stroke-width:1.23200297;stroke-linecap:round;stroke-linejoin:round;stroke-miterlimit:4;stroke-dasharray:none;stroke-opacity:1" id="path3378" d="M 222.15129,453.2588 C 222.15129,453.2588 240.96134,460.29883 263.6214,461.94882"/><path style="fill:#b3b3ff;fill-opacity:1;fill-rule:evenodd;stroke:#9696cc;stroke-width:.61600149px;stroke-linecap:butt;stroke-linejoin:miter;stroke-opacity:1" id="path3380" d="M 240.90634,457.60381 C 240.90634,457.60381 240.24634,437.91376 241.01634,422.73372"/><path id="path3388" d="M 241.01168,458.76347 C 241.01168,458.76347 240.83792,472.07009 242.01101,487.79421" style="fill:none;fill-opacity:1;fill-rule:evenodd;stroke:#b3b3ff;stroke-width:1.22266901;stroke-linecap:round;stroke-linejoin:round;stroke-miterlimit:4;stroke-dasharray:none;stroke-opacity:1"/><path style="fill:none;fill-opacity:1;fill-rule:evenodd;stroke:#9696cc;stroke-width:1.22266901;stroke-linecap:round;stroke-linejoin:round;stroke-miterlimit:4;stroke-dasharray:none;stroke-opacity:1" id="path3390" d="M 241.01167,458.76348 C 241.01167,458.76348 240.83792,472.0701 242.01101,487.79421"/><path id="path3392" d="M 240.30121,459.25848 C 240.30121,459.25848 240.12745,472.1251 241.30055,487.84921" style="fill:none;fill-opacity:1;fill-rule:evenodd;stroke:#fff;stroke-width:.36036086;stroke-linecap:round;stroke-linejoin:round;stroke-miterlimit:4;stroke-dasharray:none;stroke-opacity:1"/><path id="path3382" d="M 264.1833,461.98571 C 264.1833,461.98571 289.19085,459.20007 310.5184,454.16635" style="fill:none;fill-opacity:1;fill-rule:evenodd;stroke:#9696cc;stroke-width:1.22266901;stroke-linecap:square;stroke-linejoin:round;stroke-miterlimit:4;stroke-dasharray:none;stroke-opacity:1"/><path style="fill:none;fill-opacity:1;fill-rule:evenodd;stroke:#9696cc;stroke-width:.60676152;stroke-linecap:square;stroke-linejoin:round;stroke-miterlimit:4;stroke-dasharray:none;stroke-opacity:1" id="path3384" d="M 291.26553,457.89975 C 291.26553,457.89975 292.60464,442.23931 291.49486,422.34405"/><path style="fill:none;fill-rule:evenodd;stroke:#fff;stroke-width:.61600149;stroke-linecap:square;stroke-linejoin:round;stroke-miterlimit:4;stroke-dasharray:none;stroke-opacity:1" id="path3362" d="M 264.22214,461.38028 C 264.22214,461.38028 288.4391,459.1165 310.86524,453.76841"/><path style="opacity:.4;fill:#000;fill-opacity:1;fill-rule:evenodd;stroke:none;stroke-width:5.57412624;stroke-linecap:round;stroke-linejoin:round;stroke-miterlimit:4;stroke-dasharray:none;stroke-opacity:1" id="path3372" d="M 241.27333,422.48403 C 231.19088,424.00637 221.87588,425.51646 221.87588,425.51646 C 220.50868,434.98866 221.71944,479.81041 221.71944,479.81041 C 221.71944,479.81042 259.23007,496.75235 265.79391,497.79251 C 264.59856,487.11359 264.2413,473.85069 264.26871,461.0171 C 253.45968,460.26781 242.05215,457.95906 241.13646,457.77221 C 241.09838,457.76444 240.80404,457.71426 240.80404,457.71426 C 240.91868,457.69823 241.02231,457.69151 241.13646,457.67563 C 241.06363,456.20325 240.54565,444.80863 241.13646,422.75444 C 241.18187,422.74759 241.22789,422.742 241.27333,422.73512 L 241.27333,422.48403 z"/></g></g><g id="g3609" transform="matrix(0.7334675,0,0,0.7334675,120.57972,127.9059)"><g style="opacity:.1;fill:#000;fill-opacity:1;stroke:#000;stroke-opacity:1" id="g3213" transform="matrix(0.6797715,0,0,0.6797715,79.495736,150.61614)"><path style="fill:#000;fill-opacity:1;fill-rule:evenodd;stroke:#000;stroke-width:8.21800041;stroke-linecap:round;stroke-linejoin:round;stroke-miterlimit:4;stroke-dasharray:none;stroke-opacity:1" id="path3215" d="M 199.61492,433.81225 C 184.8016,448.50767 161.96523,465.47237 161.96523,465.47237 C 157.91735,467.20255 114.39854,463.91417 114.39854,463.91417 C 114.39854,463.91417 98.316196,420.61727 96.427046,410.88014 C 96.427046,410.88014 133.1714,389.20618 135.49178,388.97419 C 135.49178,388.97419 179.4726,376.30038 180.63993,377.84307 L 199.61492,433.81225 z"/><path style="opacity:.24840764;fill:#000;fill-opacity:1;fill-rule:evenodd;stroke:#000;stroke-width:.41316402px;stroke-linecap:butt;stroke-linejoin:miter;stroke-opacity:1" id="path3217" d="M 135.59992,391.10956 C 135.59992,391.10956 148.25461,436.47909 161.05818,462.75042 L 159.59533,462.03443 L 117.06305,460.03073 L 100.8598,411.37637 L 135.59992,391.10956 z"/></g><g id="g3605"><path style="fill:#d7d7ff;fill-opacity:1;fill-rule:evenodd;stroke:#1e1e1e;stroke-width:6;stroke-linecap:round;stroke-linejoin:round;stroke-miterlimit:4;stroke-dasharray:none;stroke-opacity:1" id="path3193" d="M 218.30116,411.05138 C 208.23149,421.04091 192.70797,432.57303 192.70797,432.57303 C 189.95634,433.74916 160.37349,431.51381 160.37349,431.51381 C 160.37349,431.51381 149.44118,402.08181 148.15698,395.46279 C 148.15698,395.46279 173.13475,380.72945 174.71208,380.57175 C 174.71208,380.57175 204.60899,371.95645 205.4025,373.00513 L 218.30116,411.05138 z"/><path style="opacity:.4;fill:#000;fill-opacity:1;fill-rule:evenodd;stroke:#000;stroke-width:.28085712px;stroke-linecap:butt;stroke-linejoin:miter;stroke-opacity:1" id="path3195" d="M 174.78559,383.63045 C 174.78559,383.63045 183.38789,412.86422 192.09139,430.72273 L 191.09698,430.23602 L 162.54189,428.69539 L 151.70595,397.05011 L 174.78559,383.63045 z"/></g></g></g><g id="g3743" transform="translate(37.857143,20.714286)"><text style="font-size:40px;font-style:normal;font-variant:normal;font-weight:400;font-stretch:normal;fill:#000;fill-opacity:1;stroke:none;stroke-width:1px;stroke-linecap:butt;stroke-linejoin:miter;stroke-opacity:1;font-family:Sansation;-inkscape-font-specification:Sansation" id="text3735" x="301.3" y="438.604" xml:space="preserve"><tspan id="tspan3737" x="301.3" y="438.604" style="font-size:56px;font-weight:400;-inkscape-font-specification:Sansation">SCons</tspan></text><text style="font-size:40px;font-style:normal;font-variant:normal;font-weight:400;font-stretch:normal;fill:#000;fill-opacity:1;stroke:none;stroke-width:1px;stroke-linecap:butt;stroke-linejoin:miter;stroke-opacity:1;font-family:Liberation Sans;-inkscape-font-specification:Liberation Sans" id="text3739" x="298.675" y="466.032" xml:space="preserve"><tspan id="tspan3741" x="298.675" y="466.032" style="font-size:22px">Build your software, better.</tspan></text></g></g></g></svg>